<?xml version="1.0" encoding="UTF-8" standalone="no"?>
<svg
   xmlns:dc="http://purl.org/dc/elements/1.1/"
   xmlns:cc="http://creativecommons.org/ns#"
   xmlns:rdf="http://www.w3.org/1999/02/22-rdf-syntax-ns#"
   xmlns:svg="http://www.w3.org/2000/svg"
   xmlns="http://www.w3.org/2000/svg"
   xmlns:sodipodi="http://sodipodi.sourceforge.net/DTD/sodipodi-0.dtd"
   xmlns:inkscape="http://www.inkscape.org/namespaces/inkscape"
   width="16"
   height="16"
   viewBox="0 0 16 16"
   version="1.1"
   id="svg4"
   sodipodi:docname="debug_dark.svg"
   inkscape:version="0.92.3 (2405546, 2018-03-11)">
  <metadata
     id="metadata10">
    <rdf:RDF>
      <cc:Work
         rdf:about="">
        <dc:format>image/svg+xml</dc:format>
        <dc:type
           rdf:resource="http://purl.org/dc/dcmitype/StillImage" />
        <dc:title></dc:title>
      </cc:Work>
    </rdf:RDF>
  </metadata>
  <defs
     id="defs8" />
  <sodipodi:namedview
     pagecolor="#ffffff"
     bordercolor="#666666"
     borderopacity="1"
     objecttolerance="10"
     gridtolerance="10"
     guidetolerance="10"
     inkscape:pageopacity="0"
     inkscape:pageshadow="2"
     inkscape:window-width="1058"
     inkscape:window-height="1340"
     id="namedview6"
     showgrid="false"
     inkscape:zoom="14.75"
     inkscape:cx="8"
     inkscape:cy="8"
     inkscape:window-x="2979"
     inkscape:window-y="619"
     inkscape:window-maximized="0"
     inkscape:current-layer="svg4" />
  <path
     d="M 13.380859 3.0078125 C 12.67182 3.0523805 11.975878 3.2832795 11.353516 3.6738281 C 10.523699 4.1945596 10.025391 4.8730469 10.025391 4.8730469 C 10.025391 4.8730469 9.5975592 3.1381583 8.2832031 3.0273438 C 6.968847 2.9165292 6.3738405 3.2398109 5.7929688 3.5820312 C 5.212097 3.9242516 4.8808594 4.359375 4.8808594 4.359375 L 5.109375 3.0273438 L 2.3945312 3.0273438 L 0.40039062 12.992188 L 3.1386719 12.992188 L 4.3828125 6.3183594 C 4.3828125 6.3183594 5.4611988 5.3773355 6.2910156 5.4628906 C 7.1208325 5.5484457 7.1210938 6.4121094 7.1210938 6.4121094 L 5.9589844 13 L 8 13 L 8 12.056641 L 8 11.044922 L 8 9.0703125 L 9.4785156 9.0703125 L 9.5429688 8.7480469 L 9.0546875 8.265625 L 9.78125 7.5488281 L 10.025391 6.3183594 C 10.025391 6.3183594 10.938764 5.3773355 11.851562 5.4628906 C 12.764361 5.5484457 12.597656 6.4980469 12.597656 6.4980469 L 12.416016 7.4414062 L 12.501953 7.5253906 L 13.845703 6.1933594 L 15.189453 7.5195312 L 15.585938 5.3847656 C 15.751901 4.1795935 15.04009 3.1381583 14.091797 3.0273438 C 13.854724 2.9996401 13.617206 2.9929565 13.380859 3.0078125 z M 12.501953 9.8632812 C 12.490023 9.8642931 12.484859 9.8648394 12.474609 9.8652344 L 12.136719 9.8789062 L 11.929688 9.9863281 L 11.916016 10.056641 L 13.255859 10.056641 C 13.236699 10.046681 13.234994 10.031284 13.214844 10.021484 L 12.941406 9.8886719 L 12.511719 9.8632812 C 12.501696 9.8627029 12.508953 9.8637319 12.501953 9.8632812 z "
     id="path2"
     style="fill:#3592c4;fill-opacity:1" />
  <path
     d="m 15.081091,13.033081 v 0.220378 c 0,0.217987 -0.03755,0.565243 -0.091,0.767525 H 16 v 0.987903 H 14.503909 C 14.036818,15.578041 13.331727,15.898 12.535636,15.898 c -0.79609,0 -1.501181,-0.319959 -1.968272,-0.889113 H 9 v -0.987903 h 1.081182 c -0.05345,-0.202282 -0.091,-0.549538 -0.091,-0.767525 V 13.033081 H 9 v -0.987904 h 0.9901818 v -0.676333 c 0,-0.107423 0.019091,-0.207288 0.032454,-0.31157 H 9 v -0.987903 h 1.345909 C 10.589,9.6591525 10.944091,9.3686381 11.372364,9.1481381 l -0.894091,-0.882 0.675182,-0.6665256 1.282909,1.2664615 c 0.03373,-0.00126 0.02991,-0.00628 0.06364,-0.00628 0.01209,0 0.05791,0.00503 0.07,0.00565 l 1.276542,-1.2658315 0.675181,0.6665256 -0.868636,0.8575 c 0.448636,0.2192436 0.820273,0.5204375 1.072273,0.9457329 H 16 v 0.987903 h -0.951364 c 0.01336,0.104282 0.03246,0.204147 0.03246,0.31157 v 0.676333 H 16 v 0.987904 z m -3.611333,-1.975807 v 0.987903 h 2.064718 v -0.987903 z m 0,1.975807 v 0.987903 h 2.064718 v -0.987903 z"
     id="path6"
     inkscape:connector-curvature="0"
     style="fill:#499c54;fill-rule:evenodd;fill-opacity:1" />
</svg>
