<?xml version="1.0" encoding="UTF-8" standalone="no"?>
<svg
   xmlns:dc="http://purl.org/dc/elements/1.1/"
   xmlns:cc="http://creativecommons.org/ns#"
   xmlns:rdf="http://www.w3.org/1999/02/22-rdf-syntax-ns#"
   xmlns:svg="http://www.w3.org/2000/svg"
   xmlns="http://www.w3.org/2000/svg"
   xmlns:sodipodi="http://sodipodi.sourceforge.net/DTD/sodipodi-0.dtd"
   xmlns:inkscape="http://www.inkscape.org/namespaces/inkscape"
   width="16"
   height="16"
   viewBox="0 0 16 16"
   version="1.1"
   id="svg4"
   sodipodi:docname="OpenTerminal_dark.svg"
   inkscape:version="0.92.3 (2405546, 2018-03-11)">
  <metadata
     id="metadata10">
    <rdf:RDF>
      <cc:Work
         rdf:about="">
        <dc:format>image/svg+xml</dc:format>
        <dc:type
           rdf:resource="http://purl.org/dc/dcmitype/StillImage" />
        <dc:title />
      </cc:Work>
    </rdf:RDF>
  </metadata>
  <defs
     id="defs8" />
  <sodipodi:namedview
     pagecolor="#ffffff"
     bordercolor="#666666"
     borderopacity="1"
     objecttolerance="10"
     gridtolerance="10"
     guidetolerance="10"
     inkscape:pageopacity="0"
     inkscape:pageshadow="2"
     inkscape:window-width="1123"
     inkscape:window-height="689"
     id="namedview6"
     showgrid="false"
     inkscape:zoom="18.153846"
     inkscape:cx="-4.2966103"
     inkscape:cy="6.5"
     inkscape:window-x="0"
     inkscape:window-y="0"
     inkscape:window-maximized="0"
     inkscape:current-layer="svg4" />
  <path
     style="fill:#afb1b3;fill-rule:evenodd;fill-opacity:1"
     d="M 1 1 L 1 11 L 6.6796875 11 L 6.9160156 9.8203125 L 7.0761719 9.015625 L 10.712891 9.015625 L 10.679688 9.2070312 C 10.986002 9.1410805 11.123412 8.9866272 11.513672 9.0195312 C 11.696446 9.0349412 11.853539 9.0818653 12 9.140625 L 12 1 L 1 1 z M 3.3066406 2.4707031 L 5.4277344 4.5898438 L 6.1347656 5.296875 L 6.1347656 5.2988281 L 5.4277344 6.0039062 L 5.4277344 6.0058594 L 3.3066406 8.125 L 2.5996094 7.4179688 L 4.7207031 5.296875 L 2.5996094 3.1777344 L 3.3066406 2.4707031 z M 6 8 L 10 8 L 10 9 L 6 9 L 6 8 z "
     id="path2" />
  <path
     d="M 7.8967982,10.016009 6.7,15.995559 h 1.643037 l 0.7468355,-4.003978 c 0,0 0.6472571,-0.564663 1.1451475,-0.51333 0.49789,0.05133 0.49789,0.569104 0.49789,0.569104 L 10.035864,16 h 1.643791 l 0.79587,-4.008419 c 0,0 0.547679,-0.564663 1.095358,-0.51333 0.547679,0.05133 0.448102,0.620437 0.448102,0.620437 l -0.746836,3.896871 h 1.692827 l 0.846413,-4.564201 c 0.09958,-0.723103 -0.327226,-1.34886 -0.896202,-1.415349 -0.568976,-0.06649 -1.145148,0.07625 -1.643038,0.388688 -0.49789,0.312439 -0.796624,0.718663 -0.796624,0.718663 0,0 -0.256955,-1.040862 -1.045569,-1.107351 -0.788614,-0.06649 -1.145147,0.127582 -1.4936703,0.332915 -0.3485231,0.205332 -0.5476791,0.466438 -0.5476791,0.466438 l 0.1371669,-0.799353 z"
     id="path2-6"
     inkscape:connector-curvature="0"
     style="fill:#3592c4;fill-rule:evenodd;fill-opacity:1" />
</svg>
