<svg xmlns="http://www.w3.org/2000/svg" width="16" height="16">
  <path d="M 1 1 L 1 11 L 6.6796875 11 L 6.9160156 9.8203125 L 7.0761719 9.015625 L 10.712891 9.015625 L 10.679688 9.2070312 C 10.986002 9.1410805 11.123412 8.9866272 11.513672 9.0195312 C 11.696446 9.0349412 11.853539 9.0818653 12 9.140625 L 12 1 L 1 1 z M 3.3066406 2.4707031 L 5.4277344 4.5898438 L 6.1347656 5.296875 L 6.1347656 5.2988281 L 5.4277344 6.0039062 L 5.4277344 6.0058594 L 3.3066406 8.125 L 2.5996094 7.4179688 L 4.7207031 5.296875 L 2.5996094 3.1777344 L 3.3066406 2.4707031 z M 6 8 L 10 8 L 10 9 L 6 9 L 6 8 z" fill="#6e6e6e" fill-rule="evenodd"/>
  <path d="M 7.8967982,10.016009 6.7,15.995559 h 1.643037 l 0.7468355,-4.003978 c 0,0 0.6472571,-0.564663 1.1451475,-0.51333 0.49789,0.05133 0.49789,0.569104 0.49789,0.569104 L 10.035864,16 h 1.643791 l 0.79587,-4.008419 c 0,0 0.547679,-0.564663 1.095358,-0.51333 0.547679,0.05133 0.448102,0.620437 0.448102,0.620437 l -0.746836,3.896871 h 1.692827 l 0.846413,-4.564201 c 0.09958,-0.723103 -0.327226,-1.34886 -0.896202,-1.415349 -0.568976,-0.06649 -1.145148,0.07625 -1.643038,0.388688 -0.49789,0.312439 -0.796624,0.718663 -0.796624,0.718663 0,0 -0.256955,-1.040862 -1.045569,-1.107351 -0.788614,-0.06649 -1.145147,0.127582 -1.4936703,0.332915 -0.3485231,0.205332 -0.5476791,0.466438 -0.5476791,0.466438 l 0.1371669,-0.799353 z" fill="#40b6e0" fill-rule="evenodd"/>
</svg>
