<svg xmlns="http://www.w3.org/2000/svg" width="16" height="16">
  <path d="M 13.380859 3.0078125 C 12.67182 3.0523805 11.975878 3.2832795 11.353516 3.6738281 C 10.523699 4.1945596 10.025391 4.8730469 10.025391 4.8730469 C 10.025391 4.8730469 9.5975592 3.1381583 8.2832031 3.0273438 C 6.968847 2.9165292 6.3738405 3.2398109 5.7929688 3.5820312 C 5.212097 3.9242516 4.8808594 4.359375 4.8808594 4.359375 L 5.109375 3.0273438 L 2.3945312 3.0273438 L 0.40039062 12.992188 L 3.1386719 12.992188 L 4.3828125 6.3183594 C 4.3828125 6.3183594 5.4611988 5.3773355 6.2910156 5.4628906 C 7.1208325 5.5484457 7.1210938 6.4121094 7.1210938 6.4121094 L 5.9589844 13 L 8 13 L 8 5.1679688 L 9.9980469 6.453125 L 10.025391 6.3183594 C 10.025391 6.3183594 10.938764 5.3773355 11.851562 5.4628906 C 12.764361 5.5484457 12.597656 6.4980469 12.597656 6.4980469 L 12.320312 7.9453125 L 14.814453 9.5488281 L 15.585938 5.3847656 C 15.751901 4.1795935 15.04009 3.1381583 14.091797 3.0273438 C 13.854724 2.9996401 13.617206 2.9929565 13.380859 3.0078125 z M 11.914062 10.0625 L 11.353516 12.992188 L 11.828125 12.992188 L 14.150391 11.5 L 11.914062 10.0625 z" fill="#3592c4"/>
  <path transform="translate(1 3)" fill="#afb1b3" fill-rule="evenodd" d="M8 4L15 8.5 8 13z"/>
</svg>
